<?xml version="1.0" encoding="utf-8" ?><svg xmlns="http://www.w3.org/2000/svg" xmlns:xlink="http://www.w3.org/1999/xlink" width="1280" height="1280" viewBox="0 0 1280 1280"><path fill="#01462D" d="M0 0L1280 0L1280 1280L0 1280L0 0Z"/><path fill="#01462D" d="M439.969 280.057L839.986 280.008C839.989 305.597 840.613 334.242 839.948 359.594L840.062 359.867L840.561 359.871C866.465 360.496 893.988 360.014 920.01 359.995L1000.03 359.974L1000 520.104L999.996 782.455C999.997 827.878 999.426 874.724 1000.09 920.041L1000.1 1079.96C974.337 1080.59 946.052 1080.08 920.069 1080.09L920.096 1159.96C898.35 1160.37 875.68 1160.06 853.882 1160.06L731.738 1160.06L360.055 1160.07C359.57 1133.72 359.929 1106.46 359.94 1080.03L280.035 1080.07C279.304 1027.58 279.67 972.627 279.99 920.061L279.993 360.012C289.94 360.033 354.948 358.887 360.064 360.559C364.176 359.009 431.013 359.992 439.97 360.005L439.858 359.477C440.751 335.296 439.979 304.698 439.969 280.057Z"/><path fill="#003928" d="M360.064 360.559C364.176 359.009 431.013 359.992 439.97 360.005L439.987 439.981L440.002 520.081C452.46 519.662 467.362 520.01 479.997 519.993L560.01 520L559.961 698.361L560.045 739.839C560.054 743.42 560.288 757.101 559.617 759.983L560.017 760.102L559.98 840.033L520.016 839.947L520.023 919.979L599.58 920.003C611.908 920 627.92 920.477 640.005 919.932L640.051 1000.03L840.053 999.998L920.077 999.995L920.053 919.999L1000.09 920.041L1000.1 1079.96C974.337 1080.59 946.052 1080.08 920.069 1080.09L920.096 1159.96C898.35 1160.37 875.68 1160.06 853.882 1160.06L731.738 1160.06L360.055 1160.07C359.57 1133.72 359.929 1106.46 359.94 1080.03L280.035 1080.07C279.304 1027.58 279.67 972.627 279.99 920.061L279.993 360.012C289.94 360.033 354.948 358.887 360.064 360.559Z"/><path fill="#00D86E" d="M440.002 520.081C452.46 519.662 467.362 520.01 479.997 519.993L560.01 520L559.961 698.361L560.045 739.839C560.054 743.42 560.288 757.101 559.617 759.983L560.017 760.102L559.98 840.033L520.016 839.947L520.023 919.979L467.314 920.03C458.914 920.029 448.008 919.723 439.801 920.088C416.054 919.099 384.294 919.991 360.013 919.996L360.001 840.015C385.064 840.017 415.349 840.744 440.008 839.89L440.002 520.081Z"/><path fill="#90FEC9" d="M560.01 520L559.961 698.361L560.045 739.839C560.054 743.42 560.288 757.101 559.617 759.983L480.001 760.011L479.997 519.993L560.01 520Z"/><path fill="#002B22" d="M520.023 919.979L599.58 920.003C611.908 920 627.92 920.477 640.005 919.932L640.051 1000.03L840.053 999.998L840.069 1079.99L440.041 1080.03L439.975 999.966C439.992 973.599 440.201 946.967 439.899 920.62L439.801 920.088C448.008 919.723 458.914 920.029 467.314 920.03L520.023 919.979Z"/><path fill="#009847" d="M520.023 919.979L599.58 920.003C611.908 920 627.92 920.477 640.005 919.932L640.051 1000.03L439.975 999.966C439.992 973.599 440.201 946.967 439.899 920.62L439.801 920.088C448.008 919.723 458.914 920.029 467.314 920.03L520.023 919.979Z"/><path fill="#002B22" d="M279.993 360.012C289.94 360.033 354.948 358.887 360.064 360.559L359.836 361.294C358.806 364.796 359.205 401.235 359.205 407.408L359.216 529.15L359.224 789.532L359.305 874.866C359.306 888.146 358.708 907.045 359.41 919.929C332.938 920.294 306.421 919.804 279.99 920.061L279.993 360.012Z"/><path fill="#3CFE9C" d="M360.064 360.559C364.176 359.009 431.013 359.992 439.97 360.005L439.987 439.981L440.002 520.081L440.008 839.89C415.349 840.744 385.064 840.017 360.001 840.015L359.988 439.985C360.002 414.558 360.608 386.5 359.836 361.294L360.064 360.559Z"/><path fill="#90FEC9" d="M360.064 360.559C364.176 359.009 431.013 359.992 439.97 360.005L439.987 439.981L359.988 439.985C360.002 414.558 360.608 386.5 359.836 361.294L360.064 360.559Z"/><path fill="#002B22" d="M359.959 920.583C384.562 921.818 414.499 919.986 439.899 920.62C440.201 946.967 439.992 973.599 439.975 999.966C414.441 1000.62 385.787 1000.05 360.047 1000.06L359.959 920.583Z"/><path fill="#00F480" d="M439.969 280.057L839.986 280.008C839.989 305.597 840.613 334.242 839.948 359.594L840.062 359.867L840.04 520.038C831.481 520.017 807.513 519.352 799.987 520.198L800.01 760.011L720.31 760.032L719.876 759.893C694.215 760.556 665.882 760.012 640.013 759.99C615.139 759.465 584.898 759.547 560.017 760.102L559.617 759.983C560.288 757.101 560.054 743.42 560.045 739.839L559.961 698.361L560.01 520L479.997 519.993C467.362 520.01 452.46 519.662 440.002 520.081L439.987 439.981L439.97 360.005L439.858 359.477C440.751 335.296 439.979 304.698 439.969 280.057Z"/><path fill="#3CFE9C" d="M639.996 520.015L719.979 520.057L719.964 679.173L719.973 732.017C719.972 740.311 720.283 751.779 719.876 759.893C694.215 760.556 665.882 760.012 640.013 759.99C615.139 759.465 584.898 759.547 560.017 760.102L559.617 759.983C560.288 757.101 560.054 743.42 560.045 739.839L559.961 698.361L560.01 520L639.996 520.015Z"/><path fill="#90FEC9" d="M439.969 280.057L839.986 280.008C839.989 305.597 840.613 334.242 839.948 359.594C836.401 360.289 827.629 360.029 823.528 360.024L793.895 360.007L679.961 359.998L519.991 359.985L439.97 360.005L439.858 359.477C440.751 335.296 439.979 304.698 439.969 280.057Z"/><path fill="#00D86E" d="M839.948 359.594L840.062 359.867L840.04 520.038C831.481 520.017 807.513 519.352 799.987 520.198C773.45 520.584 746.456 520.065 719.822 520.26L719.682 440.245C709.051 440.101 690.019 439.627 679.953 440.455L679.961 359.998L793.895 360.007L823.528 360.024C827.629 360.029 836.401 360.289 839.948 359.594Z"/><path fill="#3CFE9C" d="M439.97 360.005L519.991 359.985L520.015 439.985L439.987 439.981L439.97 360.005Z"/><path fill="#90FEC9" d="M560.008 440.031L640.002 440.021L639.996 520.015L560.01 520L560.008 440.031Z"/><path fill="#006B35" d="M799.987 520.198C807.513 519.352 831.481 520.017 840.04 520.038L839.985 840.165C839.996 866.228 839.534 894.033 840.06 919.957C774.687 920.573 705.34 920.762 640.005 919.932C627.92 920.477 611.908 920 599.58 920.003L520.023 919.979L520.016 839.947L559.98 840.033L560.017 760.102C584.898 759.547 615.139 759.465 640.013 759.99C665.882 760.012 694.215 760.556 719.876 759.893L720.31 760.032L800.01 760.011L799.987 520.198Z"/><path fill="#00F480" d="M560.017 760.102C584.898 759.547 615.139 759.465 640.013 759.99L640.039 840.039L559.98 840.033L560.017 760.102Z"/><path fill="#009847" d="M719.876 759.893L720.31 760.032C719.576 765.307 719.972 780.042 719.975 786.242L720.003 840.136C695.211 839.31 665.195 840.024 640.039 840.039L640.013 759.99C665.882 760.012 694.215 760.556 719.876 759.893Z"/><path fill="#002B22" d="M920.01 359.995L1000.03 359.974L1000 520.104L999.996 782.455C999.997 827.878 999.426 874.724 1000.09 920.041L920.053 919.999C919.46 875.651 920.016 829.885 920.014 785.438L920.004 520.898L920.01 359.995Z"/><path fill="#002B22" d="M839.995 920.019L920.053 919.999L920.077 999.995L840.053 999.998C839.605 973.822 840.006 946.296 839.995 920.019Z"/><path fill="#002B22" d="M439.987 200.011L840.029 199.974L839.968 279.568C827.635 278.823 808.157 279.463 795.419 279.469L709.034 279.484L440.066 279.489C439.743 253.242 440 226.307 439.987 200.011Z"/><path fill="#002B22" d="M840.332 279.977C866.754 280.032 893.654 280.274 920.043 279.973L920.01 359.995C893.988 360.014 866.465 360.496 840.561 359.871C840.37 333.77 841.195 305.835 840.332 279.977Z"/><path fill="#002B22" d="M359.992 280.011L439.969 280.057C439.979 304.698 440.751 335.296 439.858 359.477C414.746 360.25 385.57 359.471 360.064 359.492C359.745 333.241 360.003 306.311 359.992 280.011Z"/></svg>